<?xml version="1.0" standalone="no"?>
<!DOCTYPE svg PUBLIC "-//W3C//DTD SVG 20010904//EN"
 "http://www.w3.org/TR/2001/REC-SVG-20010904/DTD/svg10.dtd">
<svg version="1.0" xmlns="http://www.w3.org/2000/svg"
 width="451.000000pt" height="451.000000pt" viewBox="0 0 451.000000 451.000000"
 preserveAspectRatio="xMidYMid meet">
<metadata>
Created by potrace 1.14, written by Peter Selinger 2001-2017
</metadata>
<g transform="translate(0.000000,451.000000) scale(0.100000,-0.100000)"
fill="#000000" stroke="none">
<path d="M2962 4210 c-61 -37 -50 -103 26 -168 162 -136 347 -299 350 -309 5
-17 -36 -41 -120 -70 -99 -34 -129 -33 -225 11 -94 42 -144 50 -190 31 -25
-11 -33 -20 -33 -40 0 -14 -4 -24 -9 -21 -8 5 -3 -24 14 -80 8 -25 -12 -34
-190 -84 -60 -17 -148 -46 -195 -64 -47 -19 -123 -46 -170 -61 -134 -42 -172
-58 -161 -65 6 -3 -22 -7 -62 -7 -82 -2 -332 -12 -332 -13 0 -1 -22 -3 -50 -5
-27 -2 -81 -7 -120 -10 -38 -3 -104 -8 -145 -11 -76 -4 -94 -7 -164 -25 l-38
-10 6 -57 c4 -32 8 -68 11 -82 2 -14 6 -66 9 -115 l5 -90 -126 -84 c-343 -228
-582 -441 -750 -668 -235 -317 -231 -606 10 -751 47 -28 217 -96 217 -87 0 2
14 0 31 -5 88 -25 362 -33 549 -16 95 8 376 62 531 101 157 40 462 157 501
192 21 18 25 48 6 37 -9 -5 -9 -3 1 9 11 14 11 18 -3 23 -21 8 -20 20 2 20 9
1 60 15 112 31 52 17 143 44 202 59 58 16 105 31 103 34 -2 3 10 5 26 6 36 1
112 50 103 66 -4 7 -3 8 4 4 13 -8 74 43 66 56 -7 12 19 5 28 -7 4 -5 8 -33 8
-61 0 -28 3 -54 7 -58 9 -9 13 -37 5 -32 -8 5 -4 -103 5 -124 4 -8 5 -36 4
-61 -2 -26 2 -50 8 -53 7 -5 8 -1 4 10 -4 12 -2 15 8 12 8 -3 13 -15 12 -26
-4 -32 21 -18 52 30 15 23 40 52 56 65 15 13 37 39 49 58 12 19 37 44 56 55
19 12 32 25 29 30 -3 4 2 11 11 14 9 4 14 13 10 22 -3 8 -2 13 3 10 11 -7 33
43 25 56 -4 7 -2 8 4 4 7 -4 26 15 47 46 35 53 43 78 25 78 -5 0 -10 5 -10 11
0 5 5 7 10 4 20 -13 9 13 -12 29 l-23 17 23 -11 c15 -7 22 -7 22 0 0 5 -4 10
-10 10 -5 0 -10 5 -10 11 0 5 4 8 8 5 11 -7 10 58 -1 65 -5 4 -6 13 -1 20 11
18 5 91 -9 107 -6 7 -19 11 -29 9 -10 -3 -21 -1 -24 5 -3 5 -26 8 -50 7 -24
-2 -46 0 -50 4 -4 4 -12 7 -18 7 -6 0 -4 -5 4 -10 9 -6 10 -10 3 -10 -6 0 -15
5 -18 10 -3 6 -16 10 -28 9 -21 0 -21 -1 -2 -9 16 -6 14 -8 -13 -7 -22 0 -29
3 -20 8 10 7 9 9 -4 9 -9 0 -20 -4 -23 -10 -3 -5 -12 -10 -18 -10 -7 0 -6 4 3
10 13 8 12 10 -2 10 -10 0 -18 -6 -18 -12 0 -10 -2 -10 -9 0 -19 30 -111 -5
-111 -42 0 -6 4 -5 9 3 6 9 9 5 9 -14 0 -19 -3 -23 -9 -14 -7 11 -9 10 -9 -3
0 -10 5 -18 12 -18 9 0 9 -3 0 -12 -13 -13 -17 -32 -4 -25 4 3 5 -16 3 -41 -4
-50 -24 -91 -36 -73 -3 6 -1 11 5 11 6 0 8 5 5 11 -4 6 -14 8 -22 5 -8 -3 -11
-2 -8 4 3 5 -3 14 -14 19 -26 14 -34 14 -25 -1 4 -8 3 -10 -2 -5 -5 5 -9 12
-10 15 -3 23 -25 60 -39 66 -23 9 -27 8 -19 -6 4 -7 3 -8 -5 -4 -6 4 -9 11 -6
16 8 13 -82 59 -110 56 -14 -2 -28 -6 -32 -9 -3 -4 -17 -7 -30 -7 -12 0 -23
-4 -23 -10 0 -5 -6 -7 -14 -4 -8 3 -17 1 -20 -5 -4 -6 -14 -7 -23 -4 -10 4
-14 2 -10 -4 4 -6 -3 -8 -18 -5 -15 2 -25 0 -25 -7 0 -7 -4 -10 -10 -6 -15 9
-61 -6 -53 -18 4 -6 0 -8 -11 -4 -9 4 -31 1 -49 -6 -18 -8 -38 -12 -44 -10 -7
3 -13 0 -13 -5 0 -6 -9 -8 -20 -5 -12 3 -20 0 -20 -6 0 -7 -4 -9 -10 -6 -5 3
-10 2 -10 -4 0 -6 -7 -8 -15 -5 -8 3 -20 2 -27 -2 -16 -10 -37 -15 -61 -15 -9
0 -15 -4 -13 -8 3 -5 -6 -6 -21 -3 -19 4 -24 2 -18 -8 5 -8 4 -11 -3 -6 -14 8
-64 -3 -57 -14 2 -4 -7 -5 -22 -2 -16 3 -24 1 -20 -5 4 -6 -4 -8 -20 -5 -16 3
-24 1 -20 -5 4 -6 -3 -8 -18 -5 -14 2 -25 0 -25 -6 0 -6 -10 -8 -22 -4 -12 3
-19 1 -15 -4 3 -6 -9 -8 -29 -6 l-35 4 2 62 c3 44 0 60 -9 58 -7 -1 -12 2 -12
7 0 13 -53 11 -69 -3 -12 -8 -13 -8 -7 2 4 6 2 12 -3 12 -6 0 -11 -4 -11 -8 0
-4 -10 -9 -22 -9 -46 -3 -68 -7 -68 -15 0 -4 -6 -5 -14 -2 -8 3 -17 1 -20 -4
-3 -6 -16 -8 -28 -4 -13 3 -19 1 -15 -5 4 -6 -1 -10 -11 -10 -31 0 -82 -15
-82 -25 0 -5 -4 -6 -10 -3 -5 3 -21 -6 -35 -21 -18 -20 -22 -30 -15 -40 8 -8
8 -14 0 -19 -5 -3 -10 -30 -10 -60 0 -54 -16 -105 -32 -105 -5 0 -6 -5 -3 -10
4 -6 1 -9 -6 -8 -6 2 -25 -16 -42 -38 -25 -36 -29 -50 -28 -105 0 -35 2 -73 3
-84 2 -15 -3 -20 -21 -21 -29 -2 -121 22 -133 34 -5 5 4 24 20 44 23 29 29 48
31 95 1 32 4 73 7 92 19 120 106 309 190 413 27 33 32 23 29 -54 -1 -37 2 -59
10 -62 7 -2 75 13 151 35 77 22 173 47 214 55 41 9 84 18 95 20 26 6 60 12
110 19 22 3 78 12 125 19 47 8 109 18 138 21 38 5 63 15 86 35 30 27 69 43
116 49 6 0 10 8 10 16 0 8 20 28 44 45 40 26 79 65 48 46 -7 -4 -12 -5 -12 -2
0 3 17 14 38 25 33 17 40 27 56 81 10 33 16 64 12 67 -5 6 -85 5 -206 -3 -30
-2 -98 -5 -150 -8 -52 -3 -95 -6 -95 -7 0 0 -16 -3 -35 -4 -19 -2 -57 -6 -85
-9 -27 -3 -88 -9 -133 -12 -78 -6 -84 -5 -78 13 3 10 6 37 8 59 1 26 6 40 13
38 6 -3 27 7 46 21 47 35 230 150 281 176 32 16 38 23 27 31 -11 8 -10 9 4 4
11 -3 24 -3 30 1 14 8 9 7 102 23 140 22 259 67 268 101 7 26 33 34 61 20 12
-7 41 -14 64 -15 51 -4 62 -12 38 -29 -16 -12 -15 -14 4 -35 11 -12 16 -22 10
-22 -5 0 -9 -5 -7 -12 1 -7 29 -19 62 -28 51 -14 60 -19 59 -38 0 -12 5 -22
13 -22 7 0 13 -3 14 -7 3 -19 7 -100 14 -258 4 -93 9 -188 10 -210 2 -22 3
-52 4 -66 1 -24 4 -25 54 -25 59 0 283 -12 367 -19 92 -8 152 -14 211 -21 51
-5 65 -2 133 30 42 19 79 42 82 50 3 8 30 20 60 27 37 8 55 18 60 31 3 10 24
30 46 44 22 14 37 28 34 31 -3 3 15 19 39 34 33 21 45 35 45 53 0 13 7 40 15
60 l15 36 -32 1 c-71 3 -332 -7 -423 -16 -22 -2 -86 -6 -141 -10 l-101 -7 -5
31 c-2 17 0 35 6 41 7 7 6 10 -3 10 -7 0 -10 4 -7 8 2 4 6 40 8 80 2 56 6 72
18 73 8 1 24 3 35 4 29 4 317 21 500 30 216 11 281 22 332 61 53 40 79 141 60
234 -12 58 -64 170 -80 170 -7 0 -83 -14 -171 -31 -174 -34 -176 -34 -176 27
0 34 15 50 74 79 52 27 69 65 50 118 -14 38 -13 40 15 66 16 15 51 36 78 45
130 47 214 90 248 127 41 46 44 73 11 113 -21 27 -29 30 -92 32 -43 1 -112 -7
-184 -22 -175 -37 -176 -37 -200 -7 -11 14 -20 31 -20 38 0 30 -36 45 -113 45
-83 0 -98 9 -127 80 -15 36 -40 44 -121 37 -57 -5 -66 -2 -147 40 -172 88
-230 103 -280 73z m38 -40 c-8 -5 -19 -10 -25 -10 -5 0 -3 5 5 10 8 5 20 10
25 10 6 0 3 -5 -5 -10z m90 -15 c33 -19 21 -19 -21 0 -19 8 -27 14 -19 14 8 0
26 -6 40 -14z m70 -5 c8 -5 11 -10 5 -10 -5 0 -17 5 -25 10 -8 5 -10 10 -5 10
6 0 17 -5 25 -10z m66 -41 c3 -6 -5 -3 -20 6 -14 10 -26 19 -26 22 0 7 39 -17
46 -28z m-205 -16 c13 -16 12 -17 -3 -4 -17 13 -22 21 -14 21 2 0 10 -8 17
-17z m279 -15 c0 -5 -13 -2 -30 7 -16 9 -30 17 -30 19 0 3 14 -1 30 -7 17 -6
30 -15 30 -19z m-275 -18 c10 -11 16 -20 13 -20 -3 0 -13 9 -23 20 -10 11 -16
20 -13 20 3 0 13 -9 23 -20z m90 -44 c6 -4 1 -4 -10 2 -11 6 -29 21 -40 34
-19 22 -19 22 10 -2 17 -14 35 -29 40 -34z m274 50 c-2 -2 -17 -6 -34 -10 -22
-5 -26 -4 -15 4 14 9 59 15 49 6z m58 -12 c-3 -3 -12 -4 -19 -1 -8 3 -5 6 6 6
11 1 17 -2 13 -5z m-363 -53 c-5 -6 -34 20 -34 30 0 5 8 1 18 -8 10 -10 17
-20 16 -22z m383 20 c0 -11 -7 -17 -14 -14 -9 4 -9 8 0 19 16 17 16 17 14 -5z
m-331 -53 l29 -33 -32 29 c-31 28 -38 36 -30 36 2 0 16 -15 33 -32z m389 -7
c-6 -5 -25 10 -25 20 0 5 6 4 14 -3 8 -7 12 -15 11 -17z m-335 -13 c0 -12 -6
-9 -26 13 -19 22 -19 22 4 8 12 -8 22 -17 22 -21z m497 16 c-3 -3 -12 -4 -19
-1 -8 3 -5 6 6 6 11 1 17 -2 13 -5z m-122 -14 c3 -6 -1 -7 -9 -4 -18 7 -21 14
-7 14 6 0 13 -4 16 -10z m52 -15 c0 -8 -4 -12 -9 -9 -5 3 -6 10 -3 15 9 13 12
11 12 -6z m80 9 c-3 -3 -12 -4 -19 -1 -8 3 -5 6 6 6 11 1 17 -2 13 -5z m-40
-10 c-3 -3 -12 -4 -19 -1 -8 3 -5 6 6 6 11 1 17 -2 13 -5z m-411 -61 c33 -32
44 -44 25 -27 -20 17 -51 42 -69 57 -19 15 -30 27 -25 27 5 0 36 -26 69 -57z
m-15 40 c13 -16 12 -17 -3 -4 -17 13 -22 21 -14 21 2 0 10 -8 17 -17z m344 7
c13 -6 15 -9 5 -9 -8 0 -22 4 -30 9 -18 12 -2 12 25 0z m583 -17 c-10 -2 -26
-2 -35 0 -10 3 -2 5 17 5 19 0 27 -2 18 -5z m-878 -28 c13 -14 21 -25 18 -25
-2 0 -15 11 -28 25 -13 14 -21 25 -18 25 2 0 15 -11 28 -25z m841 7 c-7 -2
-18 1 -23 6 -8 8 -4 9 13 5 13 -4 18 -8 10 -11z m-44 -8 c-3 -3 -12 -4 -19 -1
-8 3 -5 6 6 6 11 1 17 -2 13 -5z m141 -19 c-3 -3 -9 2 -12 12 -6 14 -5 15 5 6
7 -7 10 -15 7 -18z m-291 9 c-3 -3 -12 -4 -19 -1 -8 3 -5 6 6 6 11 1 17 -2 13
-5z m100 0 c-3 -3 -12 -4 -19 -1 -8 3 -5 6 6 6 11 1 17 -2 13 -5z m-275 -26
c-7 -7 -16 -6 -29 1 -16 11 -15 11 6 5 17 -4 21 -3 16 6 -6 9 -4 11 4 5 9 -5
9 -11 3 -17z m104 6 c-22 -8 -45 -13 -50 -10 -6 2 5 8 24 14 52 15 71 13 26
-4z m385 -2 c-5 -9 -19 -26 -32 -37 -17 -15 -15 -10 7 17 32 41 40 48 25 20z
m-451 -6 c0 -2 -7 -7 -16 -10 -8 -3 -12 -2 -9 4 6 10 25 14 25 6z m415 -6 c-3
-5 -16 -15 -28 -21 -19 -9 -19 -8 3 10 28 23 34 26 25 11z m-850 -20 c10 -11
16 -20 13 -20 -3 0 -13 9 -23 20 -10 11 -16 20 -13 20 3 0 13 -9 23 -20z m10
-40 c10 -11 16 -20 13 -20 -3 0 -13 9 -23 20 -10 11 -16 20 -13 20 3 0 13 -9
23 -20z m36 3 c13 -16 12 -17 -3 -4 -17 13 -22 21 -14 21 2 0 10 -8 17 -17z
m774 7 c-3 -5 -12 -10 -18 -10 -7 0 -6 4 3 10 19 12 23 12 15 0z m-65 -10 c-8
-5 -19 -10 -25 -10 -5 0 -3 5 5 10 8 5 20 10 25 10 6 0 3 -5 -5 -10z m-695
-40 c3 -5 1 -10 -4 -10 -6 0 -11 5 -11 10 0 6 2 10 4 10 3 0 8 -4 11 -10z
m670 0 c3 -6 -1 -7 -9 -4 -18 7 -21 14 -7 14 6 0 13 -4 16 -10z m-35 -10 c0
-5 -2 -10 -4 -10 -3 0 -8 5 -11 10 -3 6 -1 10 4 10 6 0 11 -4 11 -10z m-706
-45 c-4 -8 -11 -12 -16 -9 -6 4 -5 10 3 15 19 12 19 11 13 -6z m-449 -13 c-3
-3 -11 0 -18 7 -9 10 -8 11 6 5 10 -3 15 -9 12 -12z m40 -2 c-7 -11 19 -20 44
-13 12 3 21 1 21 -6 0 -6 -7 -8 -17 -4 -11 4 -14 3 -9 -5 4 -7 -8 -5 -29 5
-20 10 -32 19 -26 21 6 2 8 9 5 14 -4 7 -2 8 5 4 6 -4 9 -11 6 -16z m-122 -10
c-3 -11 1 -28 8 -38 13 -15 12 -16 -3 -3 -18 14 -24 42 -11 54 10 11 11 8 6
-13z m502 10 c3 -6 -1 -7 -9 -4 -18 7 -21 14 -7 14 6 0 13 -4 16 -10z m-50
-20 c3 -5 1 -10 -4 -10 -6 0 -11 5 -11 10 0 6 2 10 4 10 3 0 8 -4 11 -10z
m-30 -10 c3 -6 -1 -7 -9 -4 -9 4 -16 1 -16 -6 0 -7 -7 -10 -15 -7 -8 4 -17 2
-20 -4 -4 -5 -11 -7 -16 -4 -5 4 -9 1 -9 -5 0 -6 -5 -8 -11 -5 -12 8 -7 15 13
19 7 2 24 8 38 14 32 14 38 14 45 2z m625 6 c0 -2 -8 -10 -17 -17 -16 -13 -17
-12 -4 4 13 16 21 21 21 13z m-843 -20 c0 -8 -6 -12 -15 -9 -11 5 -11 7 0 14
7 5 13 9 14 9 0 0 1 -6 1 -14z m28 4 c3 -5 1 -10 -4 -10 -6 0 -11 5 -11 10 0
6 2 10 4 10 3 0 8 -4 11 -10z m-235 -44 c0 -12 -5 -7 -19 24 -11 24 -11 24 3
6 9 -11 16 -24 16 -30z m297 18 c8 -2 18 -6 21 -10 4 -4 -1 -4 -10 -1 -10 3
-20 2 -23 -3 -4 -6 -12 -10 -18 -9 -8 0 -8 2 1 6 10 4 9 10 -5 26 -17 21 -17
21 1 7 10 -8 25 -15 33 -16z m-52 -4 c3 -6 -1 -7 -9 -4 -18 7 -21 14 -7 14 6
0 13 -4 16 -10z m-170 -42 c22 -23 31 -35 19 -25 -11 9 -24 15 -27 12 -4 -3
-5 -2 -2 2 3 3 -5 17 -17 30 -12 13 -19 23 -17 23 3 0 23 -19 44 -42z m940 11
c-4 -5 1 -12 9 -15 17 -6 22 -39 8 -48 -5 -3 -8 5 -8 17 1 12 -4 21 -9 20 -6
-1 -11 9 -11 22 0 13 4 21 8 19 5 -3 6 -10 3 -15z m-311 -8 c4 -5 -3 -7 -14
-4 -23 6 -26 13 -6 13 8 0 17 -4 20 -9z m-84 -21 c8 -5 11 -10 5 -10 -5 0 -17
5 -25 10 -8 5 -10 10 -5 10 6 0 17 -5 25 -10z m-67 -15 c-3 -9 -8 -14 -10 -11
-3 3 -2 9 2 15 9 16 15 13 8 -4z m150 -5 c-3 -12 -8 -19 -11 -16 -5 6 5 36 12
36 2 0 2 -9 -1 -20z m-706 -6 c-3 -3 -12 -4 -19 -1 -8 3 -5 6 6 6 11 1 17 -2
13 -5z m524 -12 c-7 -2 -18 1 -23 6 -8 8 -4 9 13 5 13 -4 18 -8 10 -11z m-31
-8 c0 -2 -7 -4 -15 -4 -8 0 -15 4 -15 10 0 5 7 7 15 4 8 -4 15 -8 15 -10z
m177 -16 c-3 -8 -6 -5 -6 6 -1 11 2 17 5 13 3 -3 4 -12 1 -19z m328 12 c-3 -5
-12 -10 -18 -10 -7 0 -6 4 3 10 19 12 23 12 15 0z m-1135 -4 c0 -2 -13 -9 -30
-15 -35 -12 -41 -5 -7 9 25 10 37 12 37 6z m545 -6 c3 -6 -1 -7 -9 -4 -18 7
-21 14 -7 14 6 0 13 -4 16 -10z m630 1 c-6 -5 -21 -11 -35 -15 -21 -5 -20 -3
5 9 35 17 42 18 30 6z m-1105 -5 c0 -2 -7 -7 -16 -10 -8 -3 -12 -2 -9 4 6 10
25 14 25 6z m438 -5 c11 -7 10 -9 -3 -14 -9 -4 -14 -3 -10 2 3 5 -1 12 -7 14
-7 3 -8 6 -3 6 6 0 16 -3 23 -8z m-478 -7 c0 -8 -19 -13 -24 -6 -3 5 1 9 9 9
8 0 15 -2 15 -3z m437 -9 c0 -8 -4 -12 -9 -9 -5 3 -6 10 -3 15 9 13 12 11 12
-6z m293 -17 c0 -31 -34 -196 -42 -203 -4 -4 -57 -12 -128 -20 l-55 -7 -24 39
c-30 49 -103 107 -113 90 -5 -8 -8 -8 -8 -1 0 18 13 24 27 13 7 -6 13 -8 13
-3 0 4 6 0 13 -10 13 -17 14 -16 27 13 10 26 62 75 80 76 4 1 83 24 135 40 6
2 25 4 43 4 30 1 32 -1 32 -31z m-860 18 c0 -2 -7 -7 -16 -10 -8 -3 -12 -2 -9
4 6 10 25 14 25 6z m897 -18 c-3 -8 -6 -5 -6 6 -1 11 2 17 5 13 3 -3 4 -12 1
-19z m-960 -4 c-3 -3 -12 -4 -19 -1 -8 3 -5 6 6 6 11 1 17 -2 13 -5z m1228
-22 c-3 -3 -11 0 -18 7 -9 10 -8 11 6 5 10 -3 15 -9 12 -12z m-628 -19 c1 -22
-1 -24 -8 -10 -6 9 -7 22 -4 27 9 14 10 13 12 -17z m-737 -8 c-14 -8 -29 -14
-35 -14 -5 0 1 6 15 14 14 8 30 14 35 14 6 0 -1 -6 -15 -14z m420 -10 c-7 -9
-15 -13 -18 -10 -3 3 -12 -1 -21 -8 -14 -11 -14 -10 -2 5 7 10 17 16 21 13 5
-3 11 -1 15 5 3 5 9 10 12 10 3 0 0 -7 -7 -15z m-205 -14 c-9 -8 -36 -10 -30
-2 2 4 11 8 20 8 8 0 13 -3 10 -6z m65 -5 c0 -2 -7 -7 -16 -10 -8 -3 -12 -2
-9 4 6 10 25 14 25 6z m-381 -10 c-2 -2 -17 -6 -34 -10 -22 -5 -26 -4 -15 4
14 9 59 15 49 6z m-93 -25 c-6 -9 -46 -22 -46 -15 0 3 10 9 23 14 29 11 29 11
23 1z m873 -23 c-12 -23 -28 -38 -40 -38 -6 0 42 59 49 60 1 0 -3 -10 -9 -22z
m410 -1 c0 -9 -2 -8 -6 1 -2 6 -10 9 -15 6 -7 -4 -8 -2 -4 5 9 13 26 5 25 -12z
m274 16 c9 -8 -12 -33 -27 -33 -6 0 -2 6 9 12 19 12 19 12 -5 19 -21 6 -22 7
-4 8 11 1 24 -2 27 -6z m-1048 -33 c3 -5 1 -10 -4 -10 -6 0 -11 5 -11 10 0 6
2 10 4 10 3 0 8 -4 11 -10z m240 -30 l20 -25 -22 19 c-13 11 -23 24 -23 29 0
6 1 8 3 6 1 -2 11 -15 22 -29z m-192 -46 c3 -28 2 -56 -2 -61 -8 -14 -212 -43
-229 -34 -10 6 -7 12 12 24 14 10 29 17 32 16 4 0 10 5 15 12 4 7 14 14 22 15
8 1 42 15 76 30 50 23 61 32 57 48 -3 11 -1 15 4 10 4 -5 10 -32 13 -60z m-87
18 c-17 -16 -18 -16 -5 5 7 12 15 20 18 17 3 -2 -3 -12 -13 -22z m-31 -22 c-3
-5 -12 -10 -18 -10 -7 0 -6 4 3 10 19 12 23 12 15 0z m988 -15 c-3 -9 -8 -14
-10 -11 -3 3 -2 9 2 15 9 16 15 13 8 -4z m-1823 -59 c0 -2 -9 -6 -20 -9 -11
-3 -18 -1 -14 4 5 9 34 13 34 5z m1773 -36 c-3 -11 -10 -23 -16 -27 -5 -3 -8
-2 -5 3 3 5 8 17 11 27 9 24 16 22 10 -3z m-1959 -48 c3 -5 -1 -9 -9 -9 -8 0
-12 4 -9 9 3 4 7 8 9 8 2 0 6 -4 9 -8z m1892 -72 c-14 -22 -31 -40 -36 -40 -5
0 2 12 15 26 13 14 27 35 31 46 3 11 8 17 11 14 3 -3 -6 -24 -21 -46z m-1991
20 c-3 -5 -12 -10 -18 -10 -7 0 -6 4 3 10 19 12 23 12 15 0z m-121 -68 c3 -5
-1 -9 -9 -9 -8 0 -12 4 -9 9 3 4 7 8 9 8 2 0 6 -4 9 -8z m2013 2 c-3 -3 -12
-4 -19 -1 -8 3 -5 6 6 6 11 1 17 -2 13 -5z m-1413 -24 c-14 -14 -56 -22 -49
-9 4 5 10 7 14 5 4 -3 13 -1 21 5 20 12 26 11 14 -1z m43 4 c-3 -3 -12 -4 -19
-1 -8 3 -5 6 6 6 11 1 17 -2 13 -5z m-709 -18 c-7 -8 -15 -12 -17 -11 -5 6 10
25 20 25 5 0 4 -6 -3 -14z m-28 -20 c0 -2 -7 -7 -16 -10 -8 -3 -12 -2 -9 4 6
10 25 14 25 6z m605 -6 c-3 -5 -16 -15 -28 -21 -19 -9 -19 -8 3 10 28 23 34
26 25 11z m-695 -4 c0 -3 -15 -14 -32 -26 l-33 -22 30 26 c31 27 35 29 35 22z
m30 -21 c0 -2 -10 -9 -22 -15 -22 -11 -22 -10 -4 4 21 17 26 19 26 11z m610
-9 c0 -2 -8 -10 -17 -17 -16 -13 -17 -12 -4 4 13 16 21 21 21 13z m-710 -21
c0 -2 -10 -9 -22 -15 -22 -11 -22 -10 -4 4 21 17 26 19 26 11z m36 -10 c-11
-8 -25 -15 -30 -15 -6 1 0 7 14 15 32 19 40 18 16 0z m-86 -19 c0 -2 -8 -10
-17 -17 -16 -13 -17 -12 -4 4 13 16 21 21 21 13z m647 -30 c0 -8 -6 -12 -15
-9 -11 5 -11 7 0 14 7 5 13 9 14 9 0 0 1 -6 1 -14z m-642 -6 c-3 -5 -12 -10
-18 -10 -7 0 -6 4 3 10 19 12 23 12 15 0z m-65 -3 c0 -2 -10 -12 -22 -23 l-23
-19 19 23 c18 21 26 27 26 19z m-70 -50 c0 -2 -10 -12 -22 -23 l-23 -19 19 23
c18 21 26 27 26 19z m39 -16 c-13 -11 -26 -18 -28 -16 -6 7 24 34 38 35 7 0 3
-8 -10 -19z m-119 -45 c0 -2 -8 -10 -17 -17 -16 -13 -17 -12 -4 4 13 16 21 21
21 13z m0 -29 c0 -2 -10 -12 -22 -23 l-23 -19 19 23 c18 21 26 27 26 19z m-43
-53 c-3 -3 -12 -4 -19 -1 -8 3 -5 6 6 6 11 1 17 -2 13 -5z m-31 -16 c4 -7 3
-8 -4 -4 -7 4 -12 2 -12 -3 0 -6 -5 -11 -11 -11 -8 0 -8 5 1 15 15 18 17 18
26 3z m-66 -11 c0 -2 -12 -14 -27 -28 l-28 -24 24 28 c23 25 31 32 31 24z
m300 -41 c0 -2 -8 -10 -17 -17 -16 -13 -17 -12 -4 4 13 16 21 21 21 13z m90 1
c0 -2 -12 -14 -27 -28 l-28 -24 24 28 c23 25 31 32 31 24z m-450 -10 c0 -2
-17 -19 -37 -38 l-38 -34 34 38 c33 34 41 42 41 34z m360 -21 c0 -2 -8 -10
-17 -17 -16 -13 -17 -12 -4 4 13 16 21 21 21 13z m-355 -16 c3 -5 1 -10 -4
-10 -6 0 -11 5 -11 10 0 6 2 10 4 10 3 0 8 -4 11 -10z m-102 -55 c-10 -13 -22
-25 -27 -25 -5 0 1 11 14 25 30 32 36 32 13 0z m467 22 c0 -2 -10 -12 -22 -23
l-23 -19 19 23 c18 21 26 27 26 19z m-470 -71 c-14 -13 -27 -21 -30 -19 -4 4
40 42 50 43 2 0 -7 -11 -20 -24z m350 11 c0 -2 -12 -14 -27 -28 l-28 -24 24
28 c23 25 31 32 31 24z m90 -1 c0 -2 -8 -10 -17 -17 -16 -13 -17 -12 -4 4 13
16 21 21 21 13z m-60 -36 c-12 -16 -24 -30 -26 -30 -3 0 4 14 16 30 12 17 24
30 26 30 3 0 -4 -13 -16 -30z m-429 -23 c-10 -9 -11 -8 -5 6 3 10 9 15 12 12
3 -3 0 -11 -7 -18z m-66 -25 l-28 -27 24 31 c13 17 26 30 28 27 3 -2 -8 -16
-24 -31z m14 -30 c-19 -21 -45 -46 -59 -57 -14 -10 0 8 30 41 60 65 84 79 29
16z m391 44 c0 -2 -8 -10 -17 -17 -16 -13 -17 -12 -4 4 13 16 21 21 21 13z
m-42 -56 c-7 -10 -14 -17 -17 -15 -4 4 18 35 25 35 2 0 -1 -9 -8 -20z m70 0
c-7 -10 -14 -17 -17 -15 -4 4 18 35 25 35 2 0 -1 -9 -8 -20z m2328 -5 c1 -8
-1 -17 -5 -19 -4 -3 -7 6 -7 19 0 25 8 25 12 0z m-2806 -5 c-6 -11 -15 -20
-20 -20 -6 0 -2 9 7 20 10 11 19 20 21 20 1 0 -2 -9 -8 -20z m710 -16 c0 -8
-19 -13 -24 -6 -3 5 1 9 9 9 8 0 15 -2 15 -3z m-340 -24 c-6 -11 -13 -20 -16
-20 -2 0 0 9 6 20 6 11 13 20 16 20 2 0 0 -9 -6 -20z m307 -35 c0 -8 -4 -12
-9 -9 -5 3 -6 10 -3 15 9 13 12 11 12 -6z m-266 -38 c-10 -9 -11 -8 -5 6 3 10
9 15 12 12 3 -3 0 -11 -7 -18z m1850 6 c13 -16 12 -17 -3 -4 -17 13 -22 21
-14 21 2 0 10 -8 17 -17z m549 -3 c0 -5 -2 -10 -4 -10 -3 0 -8 5 -11 10 -3 6
-1 10 4 10 6 0 11 -4 11 -10z m-2160 -19 c-5 -11 -15 -23 -21 -27 -6 -3 -3 5
6 20 20 30 30 35 15 7z m-764 -31 c0 -10 -2 -17 -5 -15 -2 3 -11 -1 -19 -8
-11 -9 -11 -4 2 16 22 32 22 32 22 7z m727 -30 c-3 -11 -10 -23 -16 -27 -5 -3
-8 -2 -5 3 3 5 8 17 11 27 9 24 16 22 10 -3z m1788 -3 c-10 -9 -11 -8 -5 6 3
10 9 15 12 12 3 -3 0 -11 -7 -18z m-1184 -19 c-3 -8 -6 -5 -6 6 -1 11 2 17 5
13 3 -3 4 -12 1 -19z m-1374 -3 c-3 -9 -8 -14 -10 -11 -3 3 -2 9 2 15 9 16 15
13 8 -4z m516 -249 c6 -16 20 -41 31 -56 19 -27 27 -70 13 -70 -3 0 -20 11
-37 24 -79 60 -105 207 -56 311 l24 50 6 -115 c4 -63 12 -128 19 -144z m21
156 c0 -9 -4 -23 -8 -30 -5 -8 -8 1 -8 22 1 19 4 32 9 29 4 -2 7 -12 7 -21z
m-163 -17 c0 -8 -4 -12 -9 -9 -5 3 -6 10 -3 15 9 13 12 11 12 -6z m28 -25 c3
-5 1 -10 -4 -10 -6 0 -11 5 -11 10 0 6 2 10 4 10 3 0 8 -4 11 -10z m-29 -58
c3 -28 1 -53 -3 -55 -4 -3 -9 22 -9 54 -2 71 5 71 12 1z m349 39 c3 -5 0 -13
-6 -17 -7 -4 -9 -3 -5 4 3 5 0 13 -6 15 -9 4 -10 6 -1 6 6 1 14 -3 18 -8z
m-176 -71 c0 -10 -3 -8 -9 5 -12 27 -12 43 0 25 5 -8 9 -22 9 -30z m26 -46 c9
-15 12 -23 6 -20 -11 7 -35 46 -28 46 3 0 12 -12 22 -26z m-651 1 c3 -8 1 -15
-4 -15 -6 0 -10 7 -10 15 0 8 2 15 4 15 2 0 6 -7 10 -15z m479 -14 c3 -12 0
-18 -7 -15 -6 2 -12 13 -12 24 0 23 12 17 19 -9z m1647 5 c0 -3 -4 -8 -10 -11
-5 -3 -10 -1 -10 4 0 6 5 11 10 11 6 0 10 -2 10 -4z m-1604 -23 c0 -10 5 -17
12 -15 8 1 11 -2 7 -9 -5 -8 -12 -6 -22 4 -9 8 -12 20 -9 26 10 16 14 14 12
-6z m2321 2 c0 -8 -4 -12 -9 -9 -5 3 -6 10 -3 15 9 13 12 11 12 -6z m-2159
-30 c-3 -3 -9 2 -12 12 -6 14 -5 15 5 6 7 -7 10 -15 7 -18z m-684 -11 c3 -8 2
-12 -4 -9 -6 3 -10 10 -10 16 0 14 7 11 14 -7z m1949 -15 c-14 -14 -61 -21
-67 -11 -3 5 5 8 17 7 30 -3 48 5 40 18 -4 6 -1 7 6 2 8 -4 9 -11 4 -16z
m-1405 -25 c2 -1 0 -4 -5 -7 -4 -3 -17 7 -27 22 l-20 26 25 -20 c13 -11 25
-21 27 -21z m156 20 c3 -8 2 -12 -4 -9 -6 3 -10 10 -10 16 0 14 7 11 14 -7z
m59 -5 c-8 -8 -13 -7 -18 2 -5 8 -4 10 3 5 7 -4 12 -2 12 5 0 7 3 9 7 6 4 -4
2 -12 -4 -18z m2047 7 c0 -3 -4 -8 -10 -11 -5 -3 -10 -1 -10 4 0 6 5 11 10 11
6 0 10 -2 10 -4z m-1000 -26 c0 -5 -2 -10 -4 -10 -3 0 -8 5 -11 10 -3 6 -1 10
4 10 6 0 11 -4 11 -10z m-63 -25 c0 -8 -4 -12 -9 -9 -5 3 -6 10 -3 15 9 13 12
11 12 -6z m-1719 -20 c-3 -3 -9 2 -12 12 -6 14 -5 15 5 6 7 -7 10 -15 7 -18z
m1912 16 c-8 -5 -26 -11 -40 -15 -21 -5 -20 -3 5 9 32 15 60 20 35 6z m-993
-33 c-3 -8 -6 -5 -6 6 -1 11 2 17 5 13 3 -3 4 -12 1 -19z m-222 2 c3 -5 1 -10
-4 -10 -6 0 -11 5 -11 10 0 6 2 10 4 10 3 0 8 -4 11 -10z m1085 -10 c0 -5 -5
-10 -11 -10 -5 0 -7 5 -4 10 3 6 8 10 11 10 2 0 4 -4 4 -10z m-1742 -30 c13
-16 18 -30 13 -30 -6 0 -17 14 -26 30 -9 17 -14 30 -12 30 2 0 13 -13 25 -30z
m737 10 c3 -5 2 -10 -4 -10 -5 0 -13 5 -16 10 -3 6 -2 10 4 10 5 0 13 -4 16
-10z m975 5 c0 -7 -30 -13 -34 -7 -3 4 4 9 15 9 10 1 19 0 19 -2z m-933 -11
c-3 -3 -12 -4 -19 -1 -8 3 -5 6 6 6 11 1 17 -2 13 -5z m87 -13 c3 -4 -6 -6
-19 -3 -14 2 -25 6 -25 8 0 8 39 4 44 -5z m763 -13 c-3 -8 -6 -5 -6 6 -1 11 2
17 5 13 3 -3 4 -12 1 -19z m-307 3 c0 -11 -48 -25 -74 -22 -13 2 -16 -1 -10
-11 4 -7 4 -10 0 -6 -15 13 -3 23 38 34 22 6 42 12 44 13 1 0 2 -3 2 -8z m275
-10 c-13 -11 -77 -32 -82 -27 -2 2 15 11 39 19 53 19 54 19 43 8z m-688 -18
c0 -9 -4 -10 -14 -2 -7 6 -13 12 -13 14 0 1 6 2 13 2 8 0 14 -6 14 -14z m-849
-5 c-2 -7 4 -11 12 -10 8 2 11 0 7 -4 -22 -22 -38 -9 -28 24 3 9 11 0 9 -10z
m877 -8 c3 -5 1 -10 -4 -10 -6 0 -11 5 -11 10 0 6 2 10 4 10 3 0 8 -4 11 -10z
m-838 -25 c0 -8 -4 -12 -9 -9 -5 3 -6 10 -3 15 9 13 12 11 12 -6z m38 -33 c-3
-3 -11 0 -18 7 -9 10 -8 11 6 5 10 -3 15 -9 12 -12z m1160 0 c-3 -3 -11 0 -18
7 -9 10 -8 11 6 5 10 -3 15 -9 12 -12z m-1120 -12 c3 -6 -1 -7 -9 -4 -18 7
-21 14 -7 14 6 0 13 -4 16 -10z m40 -18 c-3 -3 -11 0 -18 7 -9 10 -8 11 6 5
10 -3 15 -9 12 -12z m836 1 c7 -10 9 -15 5 -11 -5 4 -14 4 -20 -2 -7 -5 -17
-5 -26 1 -12 8 -11 9 5 7 12 -2 19 2 18 10 -4 17 2 15 18 -5z m-756 -13 c-3
-5 -12 -10 -18 -10 -7 0 -6 4 3 10 19 12 23 12 15 0z m690 -11 c11 -16 1 -19
-13 -3 -7 8 -8 14 -3 14 5 0 13 -5 16 -11z m-665 -9 c0 -5 -2 -10 -4 -10 -3 0
-8 5 -11 10 -3 6 -1 10 4 10 6 0 11 -4 11 -10z m67 -4 c0 -8 -8 -11 -21 -8
-19 5 -19 6 0 13 10 4 19 8 20 8 0 1 1 -5 1 -13z m558 4 c-3 -5 -12 -10 -18
-10 -7 0 -6 4 3 10 19 12 23 12 15 0z m-235 -10 c8 -5 11 -10 5 -10 -5 0 -17
5 -25 10 -8 5 -10 10 -5 10 6 0 17 -5 25 -10z m74 2 c3 -5 -1 -9 -9 -9 -8 0
-12 4 -9 9 3 4 7 8 9 8 2 0 6 -4 9 -8z m-313 -11 c-8 -5 -20 -7 -28 -4 -21 8
-15 13 15 13 20 0 23 -3 13 -9z m46 3 c-3 -3 -12 -4 -19 -1 -8 3 -5 6 6 6 11
1 17 -2 13 -5z"/>
<path d="M1870 1064 l0 -84 72 0 c74 0 87 14 15 16 -23 1 -48 2 -54 3 -21 2
-16 51 5 52 9 0 32 2 50 2 52 3 42 21 -13 22 -47 0 -50 2 -50 25 0 23 3 25 52
25 49 0 89 14 47 16 -10 1 -43 3 -71 4 l-53 3 0 -84z"/>
<path d="M2143 1143 c-9 -3 -13 -30 -13 -85 l0 -81 61 6 c35 3 68 12 79 22 43
39 24 120 -32 130 -51 10 -82 12 -95 8z m112 -40 c20 -25 18 -67 -2 -85 -22
-19 -82 -28 -90 -14 -7 10 -12 106 -7 117 7 14 86 0 99 -18z"/>
<path d="M2547 1130 c-4 -14 -7 -43 -7 -65 0 -50 -7 -61 -44 -67 -34 -7 -68
22 -66 55 4 50 0 88 -10 82 -17 -11 -12 -110 8 -134 29 -37 118 -28 127 12 9
44 11 93 5 117 l-6 25 -7 -25z"/>
<path d="M2724 1140 c-24 -9 -36 -33 -28 -55 3 -8 30 -21 59 -30 61 -17 72
-27 50 -45 -22 -18 -73 -15 -96 6 -27 24 -35 10 -10 -15 32 -32 105 -29 127 4
21 33 9 48 -54 65 -56 15 -64 21 -53 38 14 23 57 23 85 1 20 -16 26 -17 26 -6
0 31 -64 54 -106 37z"/>
<path d="M2944 1139 c-5 -9 2 -11 41 -13 18 -1 20 -8 20 -73 -1 -53 3 -73 12
-73 9 0 13 20 13 74 0 73 1 74 24 72 14 -2 30 1 38 5 14 9 14 9 -85 14 -32 1
-60 -2 -63 -6z"/>
<path d="M3248 1117 c-59 -114 -68 -137 -55 -137 8 0 19 11 25 25 10 21 18 25
54 25 38 0 45 -4 62 -33 34 -58 28 -10 -8 60 -46 92 -57 101 -78 60z m40 -32
c16 -35 16 -35 -19 -35 -21 0 -29 4 -25 13 3 6 9 20 12 30 9 24 19 21 32 -8z"/>
<path d="M3476 1142 c-8 -14 -3 -162 5 -162 5 0 10 6 10 13 2 12 5 31 8 52 0
6 16 9 37 7 28 -4 40 -12 61 -46 29 -45 43 -35 18 13 -14 28 -14 33 0 55 17
26 12 51 -13 61 -24 10 -121 15 -126 7z m115 -29 c24 -24 2 -42 -49 -41 -47 0
-49 1 -46 26 1 15 2 27 3 28 11 5 84 -5 92 -13z"/>
<path d="M1560 989 c-106 -11 -107 -15 -106 -259 l1 -175 54 -3 c30 -2 57 0
62 5 4 4 9 43 10 85 1 43 5 76 8 74 3 -2 16 0 28 5 18 7 21 15 20 58 -1 50 -4
54 -39 54 -12 0 -18 7 -18 22 0 17 6 22 22 21 17 -1 31 12 55 49 18 27 32 54
30 60 -4 11 -49 13 -127 4z"/>
<path d="M3847 992 l-47 -3 2 -217 3 -217 63 -3 c34 -2 62 1 61 5 -1 4 -1 33
0 64 l1 56 47 -1 48 -1 1 -50 c1 -28 2 -55 3 -62 1 -13 113 -15 122 -1 3 5 4
46 2 90 -2 59 -8 88 -22 106 -18 25 -18 27 0 52 11 14 20 39 22 55 l2 30 -62
3 c-35 2 -64 -1 -64 -5 -1 -4 -2 -31 -3 -59 -2 -46 -6 -54 -46 -92 l-45 -42
-3 144 c-3 162 2 153 -85 148z"/>
<path d="M2517 891 c-48 -55 -87 -102 -87 -105 0 -3 14 -6 30 -6 l30 0 0 -114
0 -113 60 -1 60 0 1 31 c1 18 2 69 2 115 l1 82 48 0 48 0 0 60 0 60 -45 0
c-44 0 -45 1 -47 33 0 17 -1 38 -1 45 1 24 -15 10 -100 -87z"/>
<path d="M1770 887 c-48 -17 -61 -48 -61 -159 0 -142 16 -167 113 -174 47 -3
50 -1 70 32 25 43 36 43 40 2 l3 -33 62 0 c47 0 63 3 66 15 6 23 0 215 -7 255
-10 54 -40 68 -154 71 -54 1 -112 -3 -132 -9z m160 -164 c0 -51 -6 -60 -35
-53 -5 2 -20 2 -33 2 -22 -2 -23 1 -21 53 l2 55 44 -2 43 -1 0 -54z"/>
<path d="M2262 885 c-43 -19 -54 -45 -54 -139 -1 -79 -2 -82 -23 -79 -17 4
-27 -6 -50 -49 -17 -29 -32 -56 -34 -61 -5 -14 173 -1 197 14 27 17 31 32 35
129 2 75 2 75 32 80 29 5 30 7 30 60 l0 55 -51 1 c-28 1 -65 -4 -82 -11z"/>
<path d="M2828 843 l-58 -59 0 -115 0 -116 63 -2 62 -2 1 113 1 113 30 3 c25
3 32 8 35 30 2 15 1 41 -2 57 -4 26 -10 30 -40 33 -31 2 -42 -4 -92 -55z"/>
<path d="M3070 887 c-19 -7 -40 -23 -46 -36 -18 -35 -16 -218 2 -252 16 -31
62 -50 116 -46 33 2 40 7 62 47 l26 45 1 -40 c1 -22 1 -43 1 -46 -1 -3 29 -6
66 -5 l67 1 0 120 c0 139 -8 186 -37 204 -28 17 -213 23 -258 8z m161 -127 c1
-11 1 -31 1 -45 0 -48 -2 -51 -29 -49 -16 1 -36 3 -46 3 -15 1 -18 9 -16 54
l2 54 44 2 c37 1 43 -2 44 -19z"/>
<path d="M3471 884 c-38 -16 -49 -50 -49 -150 0 -166 10 -177 161 -180 l97 -1
29 53 c16 30 25 55 20 55 -5 1 -13 3 -19 4 -5 1 -44 3 -85 4 l-75 1 0 53 0 54
48 0 c26 0 68 1 95 2 l47 1 0 60 0 60 -121 -3 c-67 -1 -133 -7 -148 -13z"/>
</g>
</svg>
